<svg width="83" height="44" viewBox="0 0 83 44" fill="none" xmlns="http://www.w3.org/2000/svg">
<g clip-path="url(#clip0_7446_17198)">
<path d="M6.05 17H8.12V27.5H6.545L2.045 21.08V27.5H-0.0249999V17H1.55L6.05 23.405V17ZM11.6128 24.545C11.8828 25.535 12.7078 25.955 13.7278 25.955C14.4778 25.955 15.0778 25.64 15.4078 25.205L16.9678 26.105C16.2628 27.125 15.1378 27.71 13.6978 27.71C11.1778 27.71 9.58777 25.985 9.58777 23.75C9.58777 21.515 11.1928 19.79 13.5478 19.79C15.7678 19.79 17.3428 21.545 17.3428 23.75C17.3428 24.035 17.3128 24.29 17.2678 24.545H11.6128ZM11.5828 23.045H15.4078C15.1678 21.965 14.3578 21.53 13.5478 21.53C12.5128 21.53 11.8078 22.085 11.5828 23.045ZM26.8456 20H28.9006L26.5156 27.5H24.6706L23.2906 22.955L21.9106 27.5H20.0656L17.6806 20H19.7356L21.0106 24.605L22.3756 20H24.2056L25.5706 24.62L26.8456 20ZM35.8536 25.52H39.8586V27.5H33.7836V17H35.8536V25.52ZM46.4981 20H48.4331V27.5H46.4981V26.615C45.9581 27.29 45.1481 27.71 44.0531 27.71C42.0581 27.71 40.4081 25.985 40.4081 23.75C40.4081 21.515 42.0581 19.79 44.0531 19.79C45.1481 19.79 45.9581 20.21 46.4981 20.885V20ZM44.4131 25.865C45.6131 25.865 46.4981 25.01 46.4981 23.75C46.4981 22.49 45.6131 21.635 44.4131 21.635C43.2281 21.635 42.3431 22.49 42.3431 23.75C42.3431 25.01 43.2281 25.865 44.4131 25.865ZM55.1377 20H57.0727V27.5H55.1377V26.66C54.6877 27.335 53.9077 27.71 52.9027 27.71C51.3127 27.71 50.0677 26.6 50.0677 24.605V20H52.0027V24.365C52.0027 25.385 52.6177 25.91 53.4877 25.91C54.4327 25.91 55.1377 25.355 55.1377 24.05V20ZM63.015 19.79C64.605 19.79 65.85 20.9 65.85 22.895V27.5H63.915V23.135C63.915 22.115 63.3 21.59 62.43 21.59C61.485 21.59 60.78 22.145 60.78 23.45V27.5H58.845V20H60.78V20.84C61.23 20.165 62.01 19.79 63.015 19.79ZM71.0722 27.71C68.7922 27.71 67.1122 25.985 67.1122 23.75C67.1122 21.515 68.7922 19.79 71.0722 19.79C72.5422 19.79 73.8172 20.57 74.4322 21.725L72.7672 22.7C72.4672 22.085 71.8222 21.695 71.0572 21.695C69.9022 21.695 69.0472 22.55 69.0472 23.75C69.0472 24.935 69.9022 25.79 71.0572 25.79C71.8372 25.79 72.4822 25.415 72.7822 24.8L74.4622 25.76C73.8172 26.93 72.5422 27.71 71.0722 27.71ZM79.6556 19.79C81.2456 19.79 82.4906 20.9 82.4906 22.895V27.5H80.5556V23.135C80.5556 22.115 79.9406 21.59 79.0706 21.59C78.1256 21.59 77.4206 22.145 77.4206 23.45V27.5H75.4856V17H77.4206V20.84C77.8706 20.165 78.6506 19.79 79.6556 19.79Z" fill="#F66300"/>
</g>
<defs>
<clipPath id="clip0_7446_17198">
<rect width="83" height="44" fill="white"/>
</clipPath>
</defs>
</svg>
