<?xml version="1.0" encoding="utf-8"?>
<!-- Generator: Adobe Illustrator 26.3.1, SVG Export Plug-In . SVG Version: 6.00 Build 0)  -->
<svg version="1.1" id="图层_1" xmlns="http://www.w3.org/2000/svg" xmlns:xlink="http://www.w3.org/1999/xlink" x="0px" y="0px"
	 viewBox="0 0 330.18 20.77" style="enable-background:new 0 0 330.18 20.77;" xml:space="preserve">
<style type="text/css">
	.st0{fill:#FFFFFF;}
</style>
<g>
	<g>
		<g>
			<path class="st0" d="M116.34,0.87v19.27h-2.42l-8.85-13.08v13.08h-3.08V0.87h2.41l8.85,13.08V0.87H116.34z"/>
			<path class="st0" d="M131.01,16.26h-7.99l-1.31,3.88h-3.35l6.81-19.27h3.7l6.79,19.27h-3.33L131.01,16.26z M129.99,13.29
				l-2.98-8.7l-2.98,8.7H129.99z"/>
			<path class="st0" d="M144.39,13.12h-3.65v7.02h-3.08V0.87h7.51c3.35,0,6.04,2.75,6.04,6.19c0,2.48-1.53,4.68-3.73,5.59l4.27,7.49
				h-3.38L144.39,13.12z M140.74,10.29h4.43c1.64,0,2.95-1.43,2.95-3.22c0-1.82-1.31-3.22-2.95-3.22h-4.43V10.29z"/>
			<path class="st0" d="M165.71,17.11v3.03h-12.47v-2.62l8.42-13.63h-8.24V0.87h12.07v2.62l-8.42,13.62H165.71z"/>
			<path class="st0" d="M166.68,10.51c0-5.59,4.32-9.99,9.74-9.99c5.45,0,9.74,4.4,9.74,9.99s-4.29,9.99-9.74,9.99
				C171,20.5,166.68,16.09,166.68,10.51z M183.07,10.51c0-3.96-2.9-6.91-6.65-6.91c-3.76,0-6.65,2.95-6.65,6.91s2.9,6.91,6.65,6.91
				C180.17,17.41,183.07,14.47,183.07,10.51z"/>
			<path class="st0" d="M206.66,0.87v2.75l-6.6,16.52h-3.25l6.49-16.24h-8.58V0.87H206.66z"/>
			<path class="st0" d="M208,10.51c0-5.95,2.66-9.99,7.38-9.99c4.72,0,7.38,4.05,7.38,9.99c0,5.95-2.66,9.99-7.38,9.99
				C210.66,20.5,208,16.45,208,10.51z M219.67,10.51c0-4.43-1.5-6.91-4.29-6.91c-2.76,0-4.29,2.48-4.29,6.91
				c0,4.43,1.53,6.91,4.29,6.91C218.17,17.41,219.67,14.94,219.67,10.51z"/>
			<path class="st0" d="M244.61,3.9h-5.28v16.24h-3.08V3.9h-5.31V0.87h13.68V3.9z"/>
			<path class="st0" d="M256.49,6.38v13.76h-2.9v-1.76c-0.89,1.43-2.33,2.12-4.16,2.12c-3,0-5.15-2.09-5.15-5.67V6.38h2.9v8.15
				c0,2.09,1.18,3.19,3,3.19c1.9,0,3.41-1.16,3.41-3.96V6.38H256.49z"/>
			<path class="st0" d="M266.9,6.13v3.22c-1.9-0.14-4.13,0.77-4.13,3.85v6.94h-2.9V6.38h2.9v2.31
				C263.57,6.82,265.21,6.13,266.9,6.13z"/>
			<path class="st0" d="M283.31,13.26c0,4.07-3.03,7.24-6.68,7.24c-2.09,0-3.67-0.88-4.69-2.34v1.98h-2.9V0.87h2.9v7.46
				c1.02-1.43,2.6-2.31,4.69-2.31C280.28,6.02,283.31,9.16,283.31,13.26z M280.41,13.26c0-2.56-1.82-4.4-4.24-4.4
				s-4.24,1.84-4.24,4.4c0,2.56,1.82,4.4,4.24,4.4S280.41,15.82,280.41,13.26z"/>
			<path class="st0" d="M285.18,13.26c0-4.1,3.17-7.24,7.08-7.24c3.94,0,7.08,3.14,7.08,7.24c0,4.07-3.14,7.24-7.08,7.24
				C288.35,20.5,285.18,17.33,285.18,13.26z M296.45,13.26c0-2.5-1.82-4.35-4.18-4.35s-4.18,1.84-4.18,4.35s1.82,4.35,4.18,4.35
				S296.45,15.76,296.45,13.26z"/>
		</g>
	</g>
	<g>
		<polygon class="st0" points="10.23,5.1 2.78,5.1 0,5.1 0,7.88 0,20.38 2.78,20.38 2.78,7.88 10.23,7.88 		"/>
		<rect x="47.3" class="st0" width="2.78" height="20.38"/>
		<path class="st0" d="M41.73,5.1v1.86c0,0-0.88-1.18-2.63-1.82c-0.82-0.28-1.7-0.44-2.62-0.44c-4.44,0-8.04,3.6-8.04,8.04
			s3.6,8.04,8.04,8.04c0.92,0,1.8-0.16,2.62-0.44c1.75-0.64,2.63-1.82,2.63-1.82v1.86h2.78V5.1H41.73z M36.47,18.06
			c-2.94,0-5.32-2.38-5.32-5.32c0-2.94,2.38-5.32,5.32-5.32c2.94,0,5.32,2.38,5.32,5.32C41.8,15.68,39.41,18.06,36.47,18.06z"/>
		<path class="st0" d="M74.39,8.28C73.5,6.16,71.53,4.7,69.04,4.7h0c-2.11,0-3.91,1.06-4.99,2.67c-0.91-1.61-2.49-2.67-4.6-2.67
			c-1.62,0-2.9,0.68-3.8,1.75V5.1h-2.78v15.29h2.78l0,0v-9.2c0-0.71,0.1-1.26,0.27-1.67c0.52-1.23,1.74-2.09,3.15-2.09
			c1.42,0,2.63,0.86,3.15,2.09c0.17,0.41,0.27,0.96,0.27,1.67v9.2h2.78h0v-9.2c0-0.71,0.1-1.26,0.27-1.67
			c0.52-1.23,1.74-2.09,3.15-2.09s2.63,0.86,3.15,2.09c0.17,0.41,0.27,0.96,0.27,1.67v9.2h2.78v-8.77
			C74.91,10.26,74.73,9.08,74.39,8.28z"/>
		<path class="st0" d="M24.65,7c-3.09-3.07-8.38-3.07-11.47,0c-3.07,3.09-3.07,8.38,0,11.47c1.55,1.53,3.64,2.3,5.74,2.3
			c2.26,0,4.52-0.77,6.19-2.3c0.48-0.44,0.88-0.94,1.22-1.46l-2.5-1.45c-0.22,0.35-0.49,0.67-0.8,0.97c-1.11,1.02-2.6,1.52-4.1,1.52
			c-1.39,0-2.78-0.51-3.8-1.52c-0.71-0.71-1.16-1.61-1.38-2.55h10.36h2.46h0.29C27.21,11.5,26.49,8.86,24.65,7z M13.73,11.49
			c0.21-0.95,0.67-1.84,1.38-2.55c2.05-2.03,5.55-2.03,7.6,0c0.71,0.72,1.17,1.61,1.38,2.55H13.73z"/>
		<path class="st0" d="M90.41,7c-3.09-3.07-8.38-3.07-11.47,0c-3.07,3.09-3.07,8.38,0,11.47c1.55,1.53,3.64,2.3,5.74,2.3
			c2.26,0,4.52-0.77,6.19-2.3c0.48-0.44,0.88-0.94,1.22-1.46l-2.5-1.45c-0.22,0.35-0.49,0.67-0.8,0.97c-1.11,1.02-2.6,1.52-4.1,1.52
			c-1.39,0-2.78-0.51-3.8-1.52c-0.71-0.71-1.16-1.61-1.38-2.55h10.36h2.46h0.29C92.98,11.5,92.25,8.86,90.41,7z M79.49,11.49
			c0.21-0.95,0.67-1.84,1.38-2.55c2.05-2.03,5.55-2.03,7.6,0c0.71,0.72,1.17,1.61,1.38,2.55H79.49z"/>
	</g>
	<g>
		<path class="st0" d="M315.49,6.37c-0.58-0.47-1.27-0.67-2.21-0.67h-0.86l0.3-1.97h3.5V2.59h-4.56l-0.65,4.26h2.27
			c0.82,0,1.17,0.19,1.43,0.39c0.37,0.3,0.58,0.74,0.58,1.19c0,0.87-0.76,1.6-1.71,1.6c-0.95,0-1.73-0.71-1.73-1.6V8.34h-1.21v0.09
			c0,1.51,1.32,2.74,2.94,2.74c1.62,0,2.92-1.23,2.92-2.74C316.52,7.63,316.15,6.89,315.49,6.37z"/>
		<path class="st0" d="M325.9,6.22h-3.2l-1.17,1.14h3.22c-0.28,1.53-1.62,2.66-3.16,2.66c-1.77,0-3.2-1.45-3.2-3.24
			s1.43-3.22,3.2-3.22c0.86,0,1.69,0.35,2.29,0.97l0.07,0.07l0.84-0.82l-0.07-0.07c-0.86-0.84-1.95-1.3-3.13-1.3
			c-2.42,0-4.37,1.95-4.37,4.37s1.95,4.37,4.37,4.37c2.42,0,4.39-1.95,4.39-4.37c-0.02-0.15-0.04-0.3-0.06-0.47L325.9,6.22z"/>
		<path class="st0" d="M323.39,0h-11.63c-3.76,0-6.79,3.03-6.79,6.79c0,3.76,3.03,6.79,6.79,6.79h11.63c3.76,0,6.79-3.03,6.79-6.79
			C330.18,3.03,327.13,0,323.39,0z M323.39,12.84h-11.63c-3.33,0-6.05-2.72-6.05-6.05c0-3.33,2.72-6.05,6.05-6.05h11.63
			c3.33,0,6.05,2.72,6.05,6.05S326.72,12.84,323.39,12.84z"/>
	</g>
</g>
</svg>
